<svg id="Capa_1" enable-background="new 0 0 511.997 511.997" height="512" viewBox="0 0 511.997 511.997" width="512" xmlns="http://www.w3.org/2000/svg"><g><g><path d="m463.23 296.72c-9.776 57.886-32.997 125.6-60.812 169.424h-.01c-16.081 25.353-33.718 42.711-51.169 45.534-47.625 7.726-23.148-127.433-95.24-127.433-14.186 0-24.632 5.233-32.626 13.578-32.626 34.078-24.364 120.057-62.614 113.856-47.625-7.716-96.559-123.57-111.991-214.958-10.91-64.634 6.439-146.739 78.52-158.329 72.082-11.579 92.685 37.334 128.711 37.334 17.42 0 31.235-11.425 48.995-21.933 18.976-11.219 42.474-21.387 79.715-15.401 72.082 11.589 89.43 93.694 78.521 158.328z" fill="#fff1df"/><g fill="#ecd5af"><path d="m402.408 466.144c-16.081 25.353-33.718 42.711-51.169 45.534-47.625 7.726-23.148-127.433-95.24-127.433 57.597 0 76.398 28.196 85.793 55.043 9.395 26.856 20.552 46.985 60.616 26.856z"/><path d="m304.994 153.793c-23.612 45.194-42.411 50.561-67.918 50.561s-75.186-51.016-107.4 12.082c-32.224 63.099.805 194.953 93.697 181.386-32.626 34.078-24.364 120.057-62.614 113.856-47.625-7.716-96.559-123.57-111.991-214.958-10.91-64.634 6.439-146.739 78.52-158.329 72.082-11.579 92.685 37.334 128.711 37.334 17.42 0 31.234-11.425 48.995-21.932z"/></g></g><g fill="#ffdd54"><path d="m257.446 70.162h-2.894c-10.208 0-18.673-7.904-19.372-18.089l-2.149-31.327c-.771-11.22 8.124-20.746 19.371-20.746h7.192c11.247 0 20.142 9.526 19.372 20.746l-2.149 31.327c-.698 10.184-9.163 18.089-19.371 18.089z"/><path d="m164.332 94.336-2.507 1.447c-8.841 5.104-20.124 2.491-25.821-5.979l-17.524-26.056c-6.277-9.333-3.337-22.029 6.403-27.653l6.229-3.596c9.74-5.624 22.206-1.821 27.15 8.281l13.802 28.204c4.488 9.17 1.109 20.248-7.732 25.352z"/><path d="m350.171 95.783-2.507-1.447c-8.841-5.104-12.219-16.182-7.732-25.351l13.802-28.204c4.944-10.102 17.41-13.904 27.15-8.281l6.229 3.596c9.74 5.624 12.68 18.32 6.404 27.653l-17.524 26.055c-5.698 8.47-16.982 11.083-25.822 5.979z"/></g></g></svg>